<svg width="540" height="360" viewBox="0 0 1000 679" fill="none" xmlns="http://www.w3.org/2000/svg">
  <path d="M863,149.2L862.6,157.8L862.2,162.7L853.7,176.6L844.3,189.9L848.7,187.6L847,201.3L880.5,188.3L880.9,200.8L882.4,205.4L886.5,213.7L876.2,230.1L867.3,246.5L871.9,239.1L887.2,216.3L896.5,218.6L913.6,225.1L925.8,226.4L924.3,231.4L928.9,234.3L929.6,241L939.5,235.7L940.1,239.7L945.2,242.9L943.2,252.9L943.5,261.3L941,266.9L930.4,271.8L935.9,280.9L925.5,284.9L914.3,291.6L941.8,285.8L949.2,294L931.7,304.7L913.3,307.9L944.4,305.9L943.3,311.4L939.8,315.4L940.8,316.9L940.8,320.2L942.9,322.6L945.2,324.2L949.8,315.4L953.1,322.4L954.5,329.2L947.4,336.8L947.8,343.6L936.7,346.2L928.4,341.7L922.2,335.9L911.3,331L911.1,337.6L921.2,343L924.5,349.3L935,362.3L910.5,357.4L931.1,368.9L931.9,374.2L918.8,374.8L926.8,384.2L912,384.4L912.1,390.7L909.6,399.4L885.6,400.1L877.7,384.9L874.9,384.9L875.2,391.4L882,396.8L885.6,406L891,412.6L877.6,414.6L879,422L866.5,426.9L871.6,432.2L882,422.3L876.3,432.7L874.3,442.2L871.5,450.6L870.7,453.6L869.1,459.1L852.1,463.8L864.7,455.8L854.9,458L851.2,461.2L843.7,468.9L839.5,473.3L839.6,470.3L835.4,475.5L836.8,479.5L840.6,480.7L835.4,487.2L825.7,481.5L820.2,482.5L816.5,482L814.6,485.9L811.6,480.2L808.4,473.9L807,476.4L807,479.9L804.3,474.2L797.6,463.1L796.5,463.5L801.3,472.7L798.5,472.7L799.7,481.9L790,485.8L793,489L775.9,495L772.5,495.6L770.9,502.6L750.4,513.1L739.8,522.1L735.5,524.3L733,527.4L727.4,532.5L720,538.9L721.1,541.3L707.6,555.7L710.9,550.6L684.4,562.1L687.3,564.6L684.6,570.4L682.7,571.7L677.9,562.9L674.9,563.8L674.6,573.5L673.5,564.8L672,567.7L672.2,575.1L670.2,570.1L670.6,565.9L670.9,563.3L670.9,553.6L668.4,557.3L666.3,562L665.6,568.7L662.9,575L651.7,572.9L639.3,577.4L635.4,540.5L694.3,408.1L696.7,394.5L695.5,388.1L693.1,378.8L697.3,370.3L697,366.3L698,359.9L706.8,356.3L713.1,354.7L727.4,342.2L732.3,335.1L730.4,331.5L732.1,321.2L731.9,312.8L732.1,309.1L733.1,302.3L739.2,291.7L746.1,282.6L745.7,276L735.2,264.9L734.3,261.3L736.5,255.9L741.5,249.8L744.9,238.9L746.6,231.8L774.4,235.8L776.9,223.7L776.2,217.3L775.6,207.5L775,200.5L793.6,192.5L794.9,189L802.4,182.5L812.6,174.1L856.4,157.8L863,149.2Z M676.7,447L634.6,576.8L621.2,581.7L620.6,578.8L617.4,580.9L617.8,583.8L612.7,584.1L607.6,577.4L605.5,583.9L600.9,583.8L597,586.4L592.4,590.8L587.9,595.3L588.2,600.3L598.6,598.5L593,605.4L593.6,604.2L586.7,606.8L588.5,610.6L590.8,621.2L568,634.5L569.6,627.6L574.3,623.2L559.7,620.9L557.7,622.6L560.5,628.1L562.2,635.7L551.4,638.9L503.8,643.5L496.1,644.2L490.9,640.8L472.8,637.1L440.5,623.2L441.2,620.6L429.9,620.6L415.2,619.4L414.1,620.6L413.5,622L390.3,609.2L395.5,609.2L391.9,605.1L387.7,607L387.6,602.6L381.7,594.7L377.9,592.6L378.1,597.8L375.2,588.8L378.3,580.8L393.8,586.4L383,576.2L384.6,566.4L383.2,571.5L373.7,581.2L372.9,587.6L364.5,584.5L362.3,579.1L366.8,579.8L367.2,577.4L368.4,576.2L363.2,572.5L359.8,562.1L357.2,572.8L351.7,576.6L330.7,564.8L321.5,556.8L327.4,549.6L323.2,544.4L315.9,547.1L316.6,553.6L314.3,556.7L308,563.3L306.8,564.6L274.4,561.1L261.9,561.4L287,536.3L290.1,529.6L303.3,503.6L302.7,493.6L324.7,467.6L354.3,435.6L418,401.2L420.2,395.8L420.1,388.2L446.8,393.4L549,368.3L630,418.9L676.7,447Z M604.6,589.2L603.5,595.8L603.8,593.2L598.9,592.5L604.6,589.2Z M397.8,639.7L397.2,646.3L394.8,643.7L398.1,638.5L397.8,639.7Z M283.3,536.4L260.3,564.9L249.2,567.2L222.2,567.2L216.5,566.6L210.5,569.9L199.9,571.1L196.5,569.1L197.2,564.2L195.4,558.3L198.2,546.6L201.2,544L194.5,541.2L195.6,530.3L196,521.6L201.6,522.8L209.8,537.6L220,540.7L222.8,536L230.1,532.5L237.2,532.1L251.7,536.1L283.3,536.4Z M324.7,467.6L302.7,493.6L303.3,503.6L290.1,529.6L287,536.3L260.4,535.7L253.5,525.3L257.2,523L254.3,518L253.8,513.7L255.5,515.8L261.7,515.8L261.7,513.1L253.4,504.7L267.3,509.2L271.5,509.4L270,506.5L271.7,503.2L279.1,500.3L274.7,498.6L274.4,494.8L269.7,491.5L264.2,492L263.8,488.6L270.9,479.4L276.3,470.3L281.6,469.7L285.4,465.3L302,465.3L319.1,460.9L325,463.4L324.7,467.6Z M421.3,383.6L420.1,393.5L419.3,399.4L367.6,430.8L330.6,460L325,463.4L319.1,460.9L302,465.3L297.2,463.8L300.1,461.6L300,461.2L271.5,468.3L269.4,472.1L262,476L246.4,476.9L255.9,466.4L264.6,463.6L255,463.6L252,458L253.4,449.8L255.5,445.6L268.1,434.1L270.8,430.7L274.2,424L280.2,420.2L287.1,424.5L294.8,427.2L287.4,422.8L280.8,419.2L288.4,412.9L286.5,411.2L281.3,413.1L278.3,414L275.2,421L266.7,429.7L255.2,436L251.8,432.5L250.4,433.9L247.8,443.2L244,446.8L241.8,449.2L237,444.5L234.2,443.8L236,435.8L235.6,431.6L233.8,430.3L228.5,431.1L224.9,422.4L223.6,417.5L220.2,413.2L222.4,412.9L225.5,410.4L227.5,406.2L239.1,396.8L228.6,401.9L219.9,406L225.9,398.8L227.3,394.6L218.7,390.2L220.3,381.8L218.8,381.8L216.2,381.2L209.6,382.8L206.4,387.7L200.4,389.1L201,385.5L191.8,384.9L190.1,385.3L168.1,383.9L139.5,379.5L136.6,384.3L125.9,381.3L123.4,381.8L116.8,395.3L103.6,398.2L94.4,391.5L88.5,377.8L87.2,366.5L102.3,358.6L120.5,364.3L127,360.3L140.9,354.2L139.7,351.5L144.8,356.5L147.4,356.1L150.6,359.4L153.5,352.9L155,341.8L163.5,346L160.8,350.5L163.5,361L164.1,351.5L167.4,349.2L172.9,342.3L180,344.4L182.7,339.7L195.6,330.2L197.3,332.9L196.2,337.1L195.3,339.9L199.1,343.6L206.9,347.7L205.2,339.2L209.7,334.9L241.9,339.7L250.9,336.9L256.3,339.5L271.2,336.4L268.1,329L272.8,324L270.4,304.7L268.4,310.2L222.5,313.1L212.5,314.9L212.4,310.4L217,310.2L209.2,308.7L218.1,297.5L223.5,292.6L238.1,282.8L256,268.1L255.5,266.9L259.2,266.4L277.8,257.1L284.2,247.9L287.1,257.2L286.7,263.1L282.9,268.7L285.8,273.9L297.2,272.6L306.4,290.9L308.7,293.8L314.7,302.4L316.6,311.8L313.4,319.4L313.4,325L317.3,333.6L321,338.7L321.3,342.2L338.3,350.4L354.1,358.1L386,353.8L435,357.6L436.5,361.2L425.7,376L421.3,383.6Z M338.3,350.4L321.3,342.2L321,338.7L317.3,333.6L313.4,325L313.4,319.4L316.6,311.8L314.7,302.4L308.7,293.8L306.4,290.9L297.2,272.6L285.8,273.9L282.9,268.7L286.7,263.1L287.1,257.2L284.2,247.9L271.8,258.6L256.6,258.6L255.9,248.1L252.1,246.6L249.5,249.9L245.3,241L243.6,251.9L240.2,255.6L235.1,260.4L223.2,250.1L235.3,241.8L242.2,235.5L244.1,228.9L234.6,239.3L229.6,237.1L227.7,235.5L221.9,237.2L221,241.8L213.1,241L212.3,229.5L208.7,222.9L210.1,233.1L206.1,239.6L202.1,238.8L198.9,240.2L196.6,225.7L196.9,221.9L192.1,220.8L193.3,229.9L191.5,245.3L190.1,240.9L184.4,240.3L181.6,237L188.6,226.6L182.2,231.5L177.5,227.5L175.5,232.4L166.2,239.1L159.5,230.1L157.3,242.4L153.2,249.2L142.8,247.7L139.2,243.9L137.8,245.4L131.9,251.1L117.8,255L98.4,265.6L91.7,259.8L91,256.1L91.1,251.8L73.7,246.5L49.1,242.9L57.5,234.6L59.8,223.2L67,219.5L83.3,231.4L94.9,239.2L105.8,239.7L97.2,236.7L89.1,226.9L95.2,219.1L102.1,219L88,211.6L79.6,196.1L82.3,185.8L122.8,209.6L126.1,218.1L127.9,222.5L133.8,218.6L139.6,217.4L143.7,212.3L148.8,210.9L130.2,206.9L133.8,198.9L145.1,197.6L153.8,197.1L151.6,194.5L149.5,192.2L116.6,190.3L105.3,183.6L104.7,161.4L118.7,166.6L129.6,169.7L152.2,179.5L139.2,172.5L122.8,164.2L113.2,154.1L105.3,137.9L114.7,131.9L137.3,143.6L141.4,147.6L133.9,137.4L124.7,130.9L127,119.6L134.5,119.4L122.8,115.5L127,110.2L132.4,105.9L158.1,115.5L162.9,126.6L170,124.4L173.6,131.4L173.7,141.1L167.4,153.2L175.9,142L178.1,136.4L180.5,144.3L184.2,140.6L179.7,155.2L183.2,154.4L188,150.9L190,154.4L191.7,136.4L199,135.7L203.6,144.5L206.7,156.2L205.4,162.2L201.3,180L210.3,153.2L214.1,156.1L217,158.3L217.1,164.6L219.3,161L218.7,172L219.1,177.5L223.3,160.8L219.8,146L215.6,137.8L219.2,130.2L221.6,126.7L207.5,127.4L174.1,98.8L201.5,95.8L205.4,98L210.3,100.2L212.7,95.9L224.4,90.4L208.5,88.4L213.2,84.1L214.1,80.8L200.7,87.5L196.8,82.5L199.5,73.6L198.3,73.3L185.9,80.7L188.8,72.1L179.9,82.2L160.8,79.6L157.8,72.1L170.2,66.4L161.1,58L171.3,60.8L178.7,55L180.9,59.4L181.8,55.2L186.1,51.6L197.3,60.8L204.4,54.4L212.6,56.4L219.3,54.4L221.7,54L232.5,69.7L238,77.7L235.7,81.2L237,87.4L237.9,90.5L242.6,89.8L246,87.8L253.4,91.2L257.1,91L260.3,98.8L258.7,102.1L266.1,106.5L270.1,105.9L276.1,112.2L276.1,119.5L277.1,125.8L280.3,132L284.4,135L283.1,141.7L286,135.1L288.2,126.9L293.2,130.3L292.3,134.8L293,141.2L308.3,142.2L297,151.8L290.9,156.9L304.7,156.1L312.2,159.4L310.2,171.1L308.5,187.6L299.5,194.7L309.7,198.6L288.5,207.3L283.7,200.3L278,191.5L278.4,195.9L282,201.3L280.3,208.2L283,214.3L286.8,218.5L303.2,224.3L301.2,232L310.7,242.2L297.8,257.3L312.9,250.9L320.4,260.9L320.9,268.5L321.1,282.3L325.1,297L326.5,299.6L328.3,311.4L330.9,316.6L331.2,327.3L336.5,345.3L338.3,350.4Z M549,368.3L446.8,393.4L425.7,376L436.5,361.2L435,357.6L386,353.8L354.1,358.1L338.3,350.4L333.1,332.3L330.8,323.6L330.1,312.1L330.2,300.8L327.1,292.6L329.1,286.8L330.9,278.8L332.5,256.1L339.5,274.3L344.6,276.2L338.4,253.2L338.8,241.3L341.3,231.4L359.7,211.5L363.8,208L367.5,210.8L367.4,213.3L367.2,228.8L368.9,237L371.2,230.1L372.2,235.7L372,239.6L374.9,244L378.1,247.7L382,246.4L383.2,236.1L376.8,232.7L382.1,229.7L386.3,238.2L388.5,233.1L392.3,221.2L393.9,214.3L394.2,211L397,204L395.5,188L393.7,178.6L387,157.2L383.9,142.2L385.2,132.1L391.2,128.1L395.4,125L404.2,119.8L411.8,119.8L416.9,129.5L418.6,136.4L423.9,149.5L424.5,153.8L429.5,161.9L438.5,170L441.9,172.3L444.2,175.3L446.8,183.6L450,196.2L456.9,194.2L461.5,197.1L463.4,198.4L465.7,200L468.8,184.4L464.8,162.7L460,152.6L464.9,148.9L466,142.1L464.9,134.5L482.9,126.6L489.2,125.8L491.2,126.1L497,132.1L494.2,126.6L493.6,124.2L494.8,116.4L500.1,119.1L505.9,131.8L512.4,145.4L511.7,146.5L511.7,149.7L511,151.9L509.3,154.1L512.2,156.7L513.3,162.6L510.2,170.2L505.3,171.9L503.5,174.1L503.1,180L511.4,188.6L516,194.8L516.3,199.4L517.6,203.8L518.3,209.1L513.4,214.1L512.6,219.1L511.2,223.3L509.2,226.2L508.7,229L509.8,230.9L512.4,232.5L517.5,236.2L522.5,241L524.7,245.1L522.1,249.5L521.7,252.7L520.4,257L521.2,261.5L525.6,266.5L527.6,273L535.7,275.9L539.7,290.4L552.6,302.3L555.2,326.4L552.6,352.5L549,368.3Z M863,149.2L820.8,166.6L804.2,179.9L796.8,186.1L794.5,191L775.6,197.8L774.9,205L776,210.1L776.8,220.4L774.6,231.9L773.3,236.8L745.4,234.1L743.9,243.5L739.6,252.1L735,258L734.4,263.2L741.9,269.8L746.6,279.7L744.4,287.4L735.9,297.7L732,306.7L732.2,309.9L732.1,317L730.8,328.7L730.8,332.8L729.6,340L720.9,344.6L711.6,355.9L700.6,359.1L697.2,363.9L697.5,368.5L695.5,373.3L693.2,381.2L696.2,391.3L696.5,397.9L676.7,447L556.7,375.5L555,336L554,308.9L550,298.9L537.2,284.7L534.3,274.4L526.1,270.5L523.7,263.1L519.9,259.9L521.6,254.2L521.7,250.4L524.3,246.5L524.5,243.5L519.4,238L514.3,235.5L511.2,231.4L509.3,230.4L508.7,227.2L510.6,224.8L511.4,221L513.2,217.5L514.3,212.9L518.4,206.1L516.5,202L516.7,197.8L513.9,190L504.3,182L503,176.6L504.3,172.6L509,171.4L512.9,165.3L513.1,159.1L509.8,155L509.9,152.7L511.6,150.9L511.6,147.5L511.8,146.2L513.8,142.5L502.2,124.4L495.7,114.5L499,110.4L509.9,114.8L512.3,105.9L519.5,110.2L524.7,111.3L532.3,118.3L530.8,128.2L534.9,125.2L539.3,129.6L540.1,146.5L549.4,155.6L558.6,162L562.3,170.6L564.9,172.2L567.2,177.3L569.3,190.3L572.7,204.1L577.5,217.3L579.2,208L575.5,202.8L576.1,197.1L576.1,190.3L578.8,183.8L576.1,167.6L574.3,167L571.9,162L570.1,163.8L565.3,158.7L562.4,149.5L560.3,142L557.5,115.8L569.3,110.6L577.2,112.7L576.6,114.2L592,117L597.8,122.6L604.5,129.1L611.1,145L620,161.6L619.8,154.6L624.3,150.2L629.3,147.4L632.5,154.4L632,148.9L634.5,143.1L636.5,136.4L637.5,126.7L645,120.1L644.3,113.6L653.6,105L667.1,105.8L671.9,119.4L670.9,121.2L673.9,123.7L676,118.9L686.8,117.4L686.9,123.4L691.2,117L699.7,126.6L694.9,120.5L692.3,112.7L707,105.9L706.4,109.9L713.8,115.5L709.1,104.8L712.7,97.8L714.1,93L712.8,84.8L710.1,80.5L709.3,75L706.7,67.8L707,64.9L707,60.8L701.7,48.1L706.4,43.6L707.8,45.8L712.1,40L713.4,45.9L714.7,46L718.1,41.3L721.9,44.9L723.1,48L726.7,45.2L729.6,41L732.7,38.6L742.2,38.8L757.8,45.2L753.8,52.4L753.3,55.2L754,59.9L762.8,59.4L770.2,63.6L773.6,69.4L769.9,85.4L770.5,89.9L774.3,96L783.8,98.8L786.4,101.4L788.4,104.2L796.7,111.4L801.2,113.9L803.2,109.4L803.4,95.2L822.3,89.7L829.1,80.8L835.2,69.4L849.5,69.7L848.7,79.1L830,91.8L833.9,95.6L836.2,103.7L825.2,117L819,125.8L826.6,132.1L825,136.4L850.1,132.7L859,138.1L862.3,146.1L863,149.2Z M583.4,30.9L584.1,37.3L583.4,30.9Z M552.8,144L553.7,150.9L551.3,147L552.1,142.7L552.8,144Z"
    stroke="#4A90D9"
    stroke-width="4"
    stroke-linejoin="round"
    stroke-linecap="round"
    fill="rgba(45,108,192,0.12)"/>
</svg>