<svg width="540" height="360" viewBox="0 0 1000 679" fill="none" xmlns="http://www.w3.org/2000/svg">
  <path d="M863,149.2L863.9,155.9L862.6,157.8L862.2,159.6L862.2,162.7L860,169L853.7,176.6L845.8,183.6L844.3,189.9L842.6,194.4L848.7,187.6L845,196.2L847,201.3L856.4,196.6L880.5,188.3L886.5,190.3L880.9,200.8L881.7,204.2L882.4,205.4L889.5,210.4L886.5,213.7L882.1,220.7L876.2,230.1L868.7,240.2L867.3,246.5L870.1,240.6L871.9,239.1L875.5,235L887.2,216.3L891.2,215.6L896.5,218.6L893.2,213.8L913.6,225.1L924.2,223L925.8,226.4L925.4,229.8L924.3,231.4L928.1,231.7L928.9,234.3L928.3,238.4L929.6,241L934.9,236.7L939.5,235.7L940.1,237.8L940.1,239.7L941.8,239.4L945.2,242.9L945.9,248.3L943.2,252.9L942.5,255.9L943.5,261.3L940.1,264.2L941,266.9L940.7,270.9L930.4,271.8L929.2,275.4L935.9,280.9L931.3,284.3L925.5,284.9L915.2,288.4L914.3,291.6L931.4,287.1L941.8,285.8L948,290.8L949.2,294L943.9,300.8L931.7,304.7L915.9,305.9L913.3,307.9L935.6,307.4L944.4,305.9L944.8,308L943.3,311.4L943.4,313.1L939.8,315.4L934.5,316.7L940.8,316.9L942.3,319.4L940.8,320.2L939.5,322.2L942.9,322.6L944,324.4L945.2,324.2L947.2,320.9L949.8,315.4L953.4,314.3L953.1,322.4L952.6,326.2L954.5,329.2L952.6,334.2L947.4,336.8L947.2,340.9L947.8,343.6L943.9,347L936.7,346.2L929.9,346.2L928.4,341.7L926.3,338.2L922.2,335.9L913.3,329.9L911.3,331L913.2,333.7L911.1,337.6L894.4,339.7L921.2,343L923.3,346.4L924.5,349.3L936.8,356.8L935,362.3L923.8,358.2L910.5,357.4L914,361.7L931.1,368.9L932.5,371.8L931.9,374.2L928.5,377.6L918.8,374.8L925.3,380.6L926.8,384.2L915.1,384.5L912,384.4L909.6,386.1L912.1,390.7L914.7,395.5L909.6,399.4L888.4,402.4L885.6,400.1L881.2,390.4L877.7,384.9L872.1,384.6L874.9,384.9L875.9,387.8L875.2,391.4L880.6,395.3L882,396.8L883,402.2L885.6,406L891.3,409.1L891,412.6L873,411.2L877.6,414.6L880,418.6L879,422L866.5,423L866.5,426.9L869,429L871.6,432.2L873.5,430.9L882,422.3L885.1,421.4L876.3,432.7L874.9,436.7L874.3,442.2L871.3,448.7L871.5,450.6L871.6,452.6L870.7,453.6L870.1,455.3L869.1,459.1L860.2,460.7L852.1,463.8L863,458.8L864.7,455.8L854.9,454.7L854.9,458L854,459L851.2,461.2L849.2,465L843.7,468.9L840.1,473.2L839.5,473.3L840.2,471.6L839.6,470.3L837.8,473.8L835.4,475.5L835.4,477.5L836.8,479.5L839.4,478.9L840.6,480.7L839.5,483.2L835.4,487.2L829.9,486.1L825.7,481.5L822.4,479.5L820.2,482.5L818.4,483L816.5,482L816.5,484.7L814.6,485.9L814.2,480.6L811.6,480.2L809.7,478.8L808.4,473.9L806.3,474.2L807,476.4L807.8,478.7L807,479.9L803.5,478.1L804.3,474.2L801.1,466.6L797.6,463.1L792.2,461.2L796.5,463.5L799,466.5L801.3,472.7L799.9,474.1L798.5,472.7L800.1,475.7L799.7,481.9L796.5,485.7L790,485.8L792.4,487.2L793,489L783,491.4L775.9,495L775,493.2L772.5,495.6L772,499.1L770.9,502.6L746.5,511.9L750.4,513.1L743.4,518.2L739.8,522.1L737,524.5L735.5,524.3L733.9,524.7L733,527.4L734.1,528.5L727.4,532.5L723.4,533.2L720,538.9L722.4,538L721.1,541.3L714.1,548L707.6,555.7L709.6,554.2L710.9,550.6L687.5,564.1L684.4,562.1L685.7,564L687.3,564.6L684.4,565.9L684.6,570.4L683.3,573.5L682.7,571.7L682.5,568.5L677.9,562.9L675.8,561.6L674.9,563.8L675.1,570L674.6,573.5L673.3,571.2L673.5,564.8L672.3,561.5L672,567.7L671.5,572.2L672.2,575.1L669.2,576.2L670.2,570.1L670.1,566.9L670.6,565.9L671.4,564.3L670.9,563.3L671.4,555.6L670.9,553.6L669.1,551.4L668.4,557.3L669.2,560.9L666.3,562L664.1,564.6L665.6,568.7L667.5,572.2L662.9,575L655.8,574.4L651.7,572.9L649.7,574.2L639.3,577.4L634.6,576.8L635.4,540.5L676.7,447L694.3,408.1L696.5,397.9L696.7,394.5L696.2,391.3L695.5,388.1L693.2,381.2L693.1,378.8L695.5,373.3L697.3,370.3L697.5,368.5L697,366.3L697.2,363.9L698,359.9L700.6,359.1L706.8,356.3L711.6,355.9L713.1,354.7L720.9,344.6L727.4,342.2L729.6,340L732.3,335.1L730.8,332.8L730.4,331.5L730.8,328.7L732.1,321.2L732.1,317L731.9,312.8L732.2,309.9L732.1,309.1L732,306.7L733.1,302.3L735.9,297.7L739.2,291.7L744.4,287.4L746.1,282.6L746.6,279.7L745.7,276L741.9,269.8L735.2,264.9L734.4,263.2L734.3,261.3L735,258L736.5,255.9L739.6,252.1L741.5,249.8L743.9,243.5L744.9,238.9L745.4,234.1L746.6,231.8L773.3,236.8L774.4,235.8L774.6,231.9L776.9,223.7L776.8,220.4L776.2,217.3L776,210.1L775.6,207.5L774.9,205L775,200.5L775.6,197.8L793.6,192.5L794.5,191L794.9,189L796.8,186.1L802.4,182.5L804.2,179.9L812.6,174.1L820.8,166.6L856.4,157.8L863,149.2Z M676.7,447L635.4,540.5L634.6,576.8L628,581.2L621.2,581.7L621.7,578.1L620.6,578.8L618.4,581.2L617.4,580.9L617.5,581.8L617.8,583.8L607.9,587.4L612.7,584.1L615,582.4L607.6,577.4L607.3,580.9L605.5,583.9L601.4,582.5L600.9,583.8L598.8,584.9L597,586.4L594.1,586.7L592.4,590.8L590.9,596.4L587.9,595.3L586.4,598.5L588.2,600.3L590.9,598.2L598.6,598.5L597.3,604.7L593,605.4L593.4,605.1L593.6,604.2L590.3,606L586.7,606.8L588.5,607.2L588.5,610.6L595.8,609.2L590.8,621.2L578.6,629.2L568,634.5L566.4,629.4L569.6,627.6L571.7,624.7L574.3,623.2L567.6,624.5L559.7,620.9L558.5,622L557.7,622.6L558.2,624.3L560.5,628.1L561.7,631.9L562.2,635.7L567.6,635.9L551.4,638.9L523.8,648.6L503.8,643.5L494.8,644.6L496.1,644.2L493.5,642.8L490.9,640.8L478.1,640.8L472.8,637.1L456.4,629.2L440.5,623.2L442.3,622.3L441.2,620.6L438.8,621.6L429.9,620.6L438.3,623.2L415.2,619.4L414.6,619.9L414.1,620.6L413.5,619.6L413.5,622L404.1,621.3L390.3,609.2L392.8,610.7L395.5,609.2L392.5,608.1L391.9,605.1L390.5,606.5L387.7,607L385.8,604.2L387.6,602.6L384.4,599.6L381.7,594.7L380,591.3L377.9,592.6L382.5,599.8L378.1,597.8L374,590.2L375.2,588.8L373.4,585L378.3,580.8L386.5,581.1L393.8,586.4L390.4,581.1L383,576.2L385.8,569.7L384.6,566.4L384.2,568.6L383.2,571.5L377.3,578.9L373.7,581.2L373,583.7L372.9,587.6L371.8,589.8L364.5,584.5L355.9,578.6L362.3,579.1L365.5,581.2L366.8,579.8L369.5,578.6L367.2,577.4L368.1,577.4L368.4,576.2L360.4,577.4L363.2,572.5L362.9,562L359.8,562.1L361.9,565.6L357.2,572.8L353.1,574.8L351.7,576.6L348.7,573.8L330.7,564.8L325.1,561.3L321.5,556.8L321.8,553.5L327.4,549.6L333.3,546.6L323.2,544.4L317.6,545.2L315.9,547.1L312.4,550.6L316.6,553.6L319.8,558.2L314.3,556.7L308.2,558.1L308,563.3L307.3,563.7L306.8,564.6L279.8,565.9L274.4,561.1L260.3,564.9L261.9,561.4L283.3,536.4L287,536.3L287.7,533L290.1,529.6L295.5,520L303.3,503.6L302.9,496.2L302.7,493.6L304.1,489.5L324.7,467.6L342.8,448.5L354.3,435.6L393.5,414L418,401.2L419.6,398.7L420.2,395.8L419.9,390.6L420.1,388.2L442.5,393.1L446.8,393.4L489,386.9L549,368.3L564.9,380.5L630,418.9L676.7,447Z M604.6,589.2L605.3,591.9L603.5,595.8L603.6,595.3L603.8,593.2L602.3,592.8L598.9,592.5L602.8,589.1L604.6,589.2Z M397.8,639.7L398.6,642.5L397.2,646.3L395.8,646.8L394.8,643.7L394.5,639.5L398.1,638.5L397.8,639.7Z M283.3,536.4L261.9,561.4L260.3,564.9L254.6,565.9L249.2,567.2L225.2,563.3L222.2,567.2L221.6,564.6L216.5,566.6L212.3,569.1L210.5,569.9L200.7,569.7L199.9,571.1L198.7,572.2L196.5,569.1L196.1,566.6L197.2,564.2L197,560L195.4,558.3L195.8,554.9L198.2,546.6L202.4,546L201.2,544L197.7,544.9L194.5,541.2L195.2,534L195.6,530.3L195.6,524.7L196,521.6L197.9,519.5L201.6,522.8L206.6,528.2L209.8,537.6L210,539.7L220,540.7L223.3,538.9L222.8,536L225,533.8L230.1,532.5L234,529.8L237.2,532.1L240.4,531.7L251.7,536.1L271.1,535L283.3,536.4Z M324.7,467.6L304.1,489.5L302.7,493.6L302.9,496.2L303.3,503.6L295.5,520L290.1,529.6L287.7,533L287,536.3L283.3,536.4L260.4,535.7L244.4,528.2L253.5,525.3L256.2,523.2L257.2,523L257.7,520.9L254.3,518L250.9,518.2L253.8,513.7L257.7,514.4L255.5,515.8L258.6,516.8L261.7,515.8L260,514.4L261.7,513.1L253.8,506.8L253.4,504.7L266.4,507.7L267.3,509.2L271.2,510.6L271.5,509.4L269.8,508.8L270,506.5L271.3,505.3L271.7,503.2L275.7,504.1L279.1,500.3L274.8,502.1L274.7,498.6L278.6,496.2L274.4,494.8L270.1,496.2L269.7,491.5L265.7,491.2L264.2,492L260.5,492.3L263.8,488.6L264.9,484.7L270.9,479.4L274.1,472.3L276.3,470.3L281.7,470.4L281.6,469.7L280.3,469L285.4,465.3L298.7,468L302,465.3L314.8,463.2L319.1,460.9L323.6,462L325,463.4L325,465L324.7,467.6Z M421.3,383.6L419.9,389.3L420.1,393.5L420,397.3L419.3,399.4L415.7,403.5L367.6,430.8L352.3,437.1L330.6,460L325,465L325,463.4L323.6,462L319.1,460.9L314.8,463.2L302,465.3L299.2,465.9L297.2,463.8L298.7,463.5L300.1,461.6L299.7,461.4L300,461.2L278,461.9L271.5,468.3L270.8,470.5L269.4,472.1L267,472.7L262,476L257.7,480.3L246.4,476.9L249.9,473.4L255.9,466.4L259.5,466.4L264.6,463.6L258.9,461.7L255,463.6L252.5,463L252,458L252.3,453L253.4,449.8L254.7,450.4L255.5,445.6L256.7,440.9L268.1,434.1L272.6,431.9L270.8,430.7L269.6,429.7L274.2,424L278.3,421.1L280.2,420.2L283.4,423.9L287.1,424.5L289.3,427.9L294.8,427.2L290.4,427.1L287.4,422.8L289.3,420.4L280.8,419.2L285.5,414.9L288.4,412.9L294.9,412.6L286.5,411.2L279.1,416.5L281.3,413.1L282.6,409.8L278.3,414L277,419.4L275.2,421L267.5,426L266.7,429.7L262,429.5L255.2,436L252.6,436.3L251.8,432.5L251.5,428.9L250.4,433.9L250.1,437.8L247.8,443.2L247.7,445.7L244,446.8L243.3,448.2L241.8,449.2L239.8,448.7L237,444.5L235.5,442.6L234.2,443.8L234.6,441.7L236,435.8L235.5,433.4L235.6,431.6L234.2,430.9L233.8,430.3L234.6,427.1L228.5,431.1L225.2,428.6L224.9,422.4L226.1,419.2L223.6,417.5L222.5,415.2L220.2,413.2L218.2,409.8L222.4,412.9L226.7,412.6L225.5,410.4L227.2,408L227.5,406.2L227.2,404.7L239.1,396.8L234,399.9L228.6,401.9L223.9,406.1L219.9,406L223.3,401.9L225.9,398.8L226.1,395.5L227.3,394.6L226.5,390.6L218.7,390.2L218.2,387.5L220.3,381.8L220.2,379.7L218.8,381.8L217.7,381.7L216.2,381.2L215.4,383.5L209.6,382.8L205.8,386.1L206.4,387.7L200.4,390.3L200.4,389.1L202.1,388.2L201,385.5L199.3,383.5L191.8,384.9L196.2,388.9L190.1,385.3L188.3,384.9L168.1,383.9L152,378L139.5,379.5L138,382.7L136.6,384.3L134.6,385.1L125.9,381.3L127.9,380.6L123.4,381.8L120.6,388.9L116.8,395.3L108.9,396L103.6,398.2L96.4,392.9L94.4,391.5L93.6,386.5L88.5,377.8L85,366.3L87.2,366.5L91.8,362.2L102.3,358.6L110.7,363.2L120.5,364.3L122.8,361L127,360.3L133.4,354.3L140.9,354.2L140.2,353.1L139.7,351.5L144.3,352.3L144.8,356.5L146.2,354.1L147.4,356.1L147.8,360.2L150.6,359.4L153.3,356.8L153.5,352.9L152.5,347.6L155,341.8L165.1,342.2L163.5,346L161.4,348.4L160.8,350.5L159.5,352.5L163.5,361L162.9,355.6L164.1,351.5L166.2,350.8L167.4,349.2L168.3,345.6L172.9,342.3L177,347.7L180,344.4L190,339.7L182.7,339.7L186.1,337.4L195.6,330.2L194.5,331.6L197.3,332.9L197.2,334.7L196.2,337.1L192.8,339.7L195.3,339.9L197.9,338.2L199.1,343.6L205.5,348.3L206.9,347.7L205,345.8L205.2,339.2L208,338.2L209.7,334.9L223.4,333.6L241.9,339.7L244,337.4L250.9,336.9L254.4,339.1L256.3,339.5L259.8,339.7L271.2,336.4L269.8,332L268.1,329L270.3,327.6L272.8,324L276.6,307.2L270.4,304.7L267.8,308.7L268.4,310.2L251.9,322.6L222.5,313.1L221.2,312.9L212.5,314.9L208.7,312L212.4,310.4L214.9,309.7L217,310.2L215.2,307.4L209.2,308.7L211.5,303L218.1,297.5L219.3,292.6L223.5,292.6L226.7,287.1L238.1,282.8L248.8,273L256,268.1L255.6,267.9L255.5,266.9L258.7,269.3L259.2,266.4L264,262.4L277.8,257.1L281.2,254.6L284.2,247.9L287.3,249L287.1,257.2L286.7,261.3L286.7,263.1L284.1,265.7L282.9,268.7L283.6,271L285.8,273.9L293.2,272L297.2,272.6L299.2,278.2L306.4,290.9L307.5,293.2L308.7,293.8L313.7,299.6L314.7,302.4L316.5,308.9L316.6,311.8L314,317.6L313.4,319.4L313.2,321.7L313.4,325L315.2,331.3L317.3,333.6L319.6,337.1L321,338.7L321.4,340.2L321.3,342.2L330.1,349.3L338.3,350.4L346.2,357.2L354.1,358.1L358.2,361.7L386,353.8L391.1,356L435,357.6L436.2,358.9L436.5,361.2L435.9,364.2L425.7,376L421.3,383.6Z M338.3,350.4L330.1,349.3L321.3,342.2L321.4,340.2L321,338.7L319.6,337.1L317.3,333.6L315.2,331.3L313.4,325L313.2,321.7L313.4,319.4L314,317.6L316.6,311.8L316.5,308.9L314.7,302.4L313.7,299.6L308.7,293.8L307.5,293.2L306.4,290.9L299.2,278.2L297.2,272.6L293.2,272L285.8,273.9L283.6,271L282.9,268.7L284.1,265.7L286.7,263.1L286.7,261.3L287.1,257.2L287.3,249L284.2,247.9L281.2,254.6L271.8,258.6L263.1,257.3L256.6,258.6L260,253.2L255.9,248.1L254.4,245.9L252.1,246.6L251.4,249.2L249.5,249.9L247.9,247.4L245.3,241L245.5,247.2L243.6,251.9L241.3,254.4L240.2,255.6L239,259.3L235.1,260.4L231.5,256.4L223.2,250.1L224.4,245.1L235.3,241.8L241.1,238.4L242.2,235.5L242.4,231.4L244.1,228.9L243.4,228.1L234.6,239.3L226.1,241L229.6,237.1L230.6,234.2L227.7,235.5L223.9,239.1L221.9,237.2L220.4,238.4L221,241.8L215.2,245.1L213.1,241L213.4,235.3L212.3,229.5L209.7,220L208.7,222.9L208.8,227.2L210.1,233.1L208.1,238.1L206.1,239.6L203.3,233.9L202.1,238.8L200.6,241.1L198.9,240.2L196.4,232.3L196.6,225.7L197.7,220.9L196.9,221.9L194,220.5L192.1,220.8L191.8,223.1L193.3,229.9L194.4,246.3L191.5,245.3L190,243.9L190.1,240.9L188,239.7L184.4,240.3L183.6,238.6L181.6,237L187.2,229.9L188.6,226.6L184.3,223.2L182.2,231.5L178.4,232.1L177.5,227.5L176.1,224.7L175.5,232.4L173.5,236.5L166.2,239.1L159.3,234.3L159.5,230.1L155.8,235.4L157.3,242.4L156.2,245L153.2,249.2L146.4,248.9L142.8,247.7L140.6,245.6L139.2,243.9L138.3,244.2L137.8,245.4L138.6,246.5L131.9,251.1L118.3,251.9L117.8,255L116.6,255.9L98.4,265.6L91.2,262.8L91.7,259.8L90.5,257L91,256.1L92.3,257.3L91.1,251.8L88.3,254.7L73.7,246.5L47.2,248.4L49.1,242.9L51.7,239.1L57.5,234.6L59.3,229.8L59.8,223.2L63.8,219.6L67,219.5L77.4,224.7L83.3,231.4L92.3,235L94.9,239.2L98.8,242.3L105.8,239.7L100.1,239.3L97.2,236.7L94.8,232.3L89.1,226.9L84.2,219.4L95.2,219.1L105.8,224.7L102.1,219L96.1,215.9L88,211.6L83.3,205.6L79.6,196.1L79.6,191.3L82.3,185.8L120.6,205.6L122.8,209.6L125.6,212.3L126.1,218.1L124.5,223.2L127.9,222.5L131.6,218.8L133.8,218.6L140.3,219.1L139.6,217.4L138.6,215L143.7,212.3L146.4,212.3L148.8,210.9L134.5,210.3L130.2,206.9L127.9,202.3L133.8,198.9L136.2,200.5L145.1,197.6L150.4,198.5L153.8,197.1L152.3,195.8L151.6,194.5L156.7,190.3L149.5,192.2L123.8,194.8L116.6,190.3L111.3,191L105.3,183.6L100.9,171.6L104.7,161.4L111,164.2L118.7,166.6L122.8,171.1L129.6,169.7L143.1,173.8L152.2,179.5L148.2,175.8L139.2,172.5L133.2,167.7L122.8,164.2L116.1,156.7L113.2,154.1L106.1,145.8L105.3,137.9L107,132.1L114.7,131.9L134,142.2L137.3,143.6L139.7,148.2L141.4,147.6L137.5,139.1L133.9,137.4L128.2,135L124.7,130.9L117.1,122.6L127,119.6L139.7,126.6L134.5,119.4L124.8,118.5L122.8,115.5L124.8,112.1L127,110.2L131,109.7L132.4,105.9L147.2,108.7L158.1,115.5L161.8,119.9L162.9,126.6L167.5,124.6L170,124.4L171.9,128.1L173.6,131.4L174.1,137.6L173.7,141.1L171.9,144.1L167.4,153.2L169.7,150.3L175.9,142L176.7,138.5L178.1,136.4L179.7,138.6L180.5,144.3L181.6,143.7L184.2,140.6L184,146.7L179.7,155.2L180.3,157L183.2,154.4L186,146.1L188,150.9L186.7,161.3L190,154.4L190.2,144.7L191.7,136.4L192.8,134.6L199,135.7L199.7,140.2L203.6,144.5L207,150.9L206.7,156.2L205.9,160.4L205.4,162.2L201.5,174.6L201.3,180L204.3,171.9L210.3,153.2L212,151.3L214.1,156.1L216,158.8L217,158.3L217.6,161.7L217.1,164.6L218.4,164.5L219.3,161L219.9,162.8L218.7,172L216,178.1L219.1,177.5L225,164.2L223.3,160.8L221.7,152.5L219.8,146L216.5,141.3L215.6,137.8L216.5,133.1L219.2,130.2L222.3,129.4L221.6,126.7L216,130.3L207.5,127.4L183.3,114L174.1,98.8L190.2,92.9L201.5,95.8L204.7,96.2L205.4,98L208,101.1L210.3,100.2L209.3,98.5L212.7,95.9L218.4,92.4L224.4,90.4L209.8,90.4L208.5,88.4L211.2,86.8L213.2,84.1L216,83.4L214.1,80.8L209.8,84.7L200.7,87.5L196.2,86.2L196.8,82.5L198.8,79L199.5,73.6L204.6,70.6L198.3,73.3L190.3,81.3L185.9,80.7L187.7,75.1L188.8,72.1L184.6,74.4L179.9,82.2L177.3,85L160.8,79.6L157.2,75.3L157.8,72.1L164.9,73.4L170.2,66.4L165.3,64.1L161.1,58L166.3,57.2L171.3,60.8L170.3,57.5L178.7,55L179.7,56L180.9,59.4L183.5,58.3L181.8,55.2L176.4,51L186.1,51.6L192.7,56L197.3,60.8L202.7,56.6L204.4,54.4L207.3,51.2L212.6,56.4L219.5,59L219.3,54.4L216.5,51L221.7,54L224.4,62.9L232.5,69.7L233.4,75.6L238,77.7L236.5,78.6L235.7,81.2L236.2,84.5L237,87.4L235.7,90.4L237.9,90.5L240.6,88.9L242.6,89.8L244.1,91.8L246,87.8L248,88.8L253.4,91.2L255.6,90.5L257.1,91L258.1,92.5L260.3,98.8L256.6,103.7L258.7,102.1L261.2,101.7L266.1,106.5L267.5,107.2L270.1,105.9L275,109.4L276.1,112.2L276.9,117.1L276.1,119.5L276.9,122.6L277.1,125.8L278,131.1L280.3,132L283.2,130.7L284.4,135L282.7,139.8L283.1,141.7L285.5,139.6L286,135.1L284.2,129.5L288.2,126.9L292.4,127.3L293.2,130.3L295.1,131.7L292.3,134.8L291,137L293,141.2L304,140.4L308.3,142.2L310.8,148.9L297,151.8L287.1,154.4L290.9,156.9L303.3,153L304.7,156.1L301.1,160.1L312.2,159.4L313.6,166.9L310.2,171.1L314.1,175.3L308.5,187.6L297.8,193L299.5,194.7L304,194.5L309.7,198.6L300.5,208.7L288.5,207.3L286.8,204.1L283.7,200.3L282.6,195.8L278,191.5L273,193L278.4,195.9L279.9,197.7L282,201.3L282,205.3L280.3,208.2L282.3,210.6L283,214.3L284.9,216.6L286.8,218.5L302.9,219.4L303.2,224.3L297.2,232.9L301.2,232L310.6,226.4L310.7,242.2L301.7,254.3L297.8,257.3L309.3,251.2L312.9,250.9L316.4,255.9L320.4,260.9L321,264.9L320.9,268.5L321.5,275.3L321.1,282.3L324.3,294.6L325.1,297L325,297.3L326.5,299.6L329,306.7L328.3,311.4L330.1,312.1L330.9,316.6L330.8,323.6L331.2,327.3L333.1,332.3L336.5,345.3L338.3,350.4Z M549,368.3L489,386.9L446.8,393.4L442.5,393.1L425.7,376L435.9,364.2L436.5,361.2L436.2,358.9L435,357.6L391.1,356L386,353.8L358.2,361.7L354.1,358.1L346.2,357.2L338.3,350.4L336.5,345.3L333.1,332.3L331.2,327.3L330.8,323.6L330.9,316.6L330.1,312.1L331.6,308.7L330.2,300.8L329.2,297.3L327.1,292.6L328.8,289.8L329.1,286.8L330.5,284.5L330.9,278.8L328.9,257.5L332.5,256.1L336.8,268.1L339.5,274.3L342.9,276.7L344.6,276.2L340.5,265.6L338.4,253.2L338.1,245.3L338.8,241.3L340.1,238.4L341.3,231.4L353.1,219.1L359.7,211.5L362.4,210.2L363.8,208L366.1,210.9L367.5,210.8L368,212.7L367.4,213.3L366.6,221.8L367.2,228.8L366.1,235.6L368.9,237L368.2,230.1L371.2,230.1L372,232.2L372.2,235.7L371.7,238.6L372,239.6L374,241L374.9,244L376.2,246.5L378.1,247.7L380.2,247.7L382,246.4L383.2,241.2L383.2,236.1L381,232.9L376.8,232.7L378.4,230.3L382.1,229.7L385.6,227.4L386.3,238.2L387.2,237.8L388.5,233.1L388.4,227.5L392.3,221.2L392.7,216.5L393.9,214.3L397.1,213.8L394.2,211L395.2,206.8L397,204L397.7,197.9L395.5,188L391.5,182.2L393.7,178.6L390.7,166.2L387,157.2L385.9,146.9L383.9,142.2L383.7,138.5L385.2,132.1L385.8,128L391.2,128.1L393.5,126L395.4,125L399.9,124.4L404.2,119.8L409.1,121.4L411.8,119.8L413.3,126.7L416.9,129.5L417.2,131.8L418.6,136.4L423.1,146.1L423.9,149.5L425.3,151.6L424.5,153.8L425.8,157.1L429.5,161.9L430.8,167L438.5,170L440.4,170.1L441.9,172.3L443.4,172.5L444.2,175.3L444.5,178.1L446.8,183.6L447.7,191.5L450,196.2L455.8,200L456.9,194.2L459.8,194.9L461.5,197.1L464.8,197.3L463.4,198.4L463.5,201L465.7,200L467.3,196L468.8,184.4L468.3,174.7L464.8,162.7L459.7,155.9L460,152.6L461.8,150.3L464.9,148.9L467.7,144.9L466,142.1L464.6,135.8L464.9,134.5L467.2,131L482.9,126.6L488.8,130L489.2,125.8L490.6,125.1L491.2,126.1L492.5,128.8L497,132.1L495.2,130L494.2,126.6L494.8,125.3L493.6,124.2L493.1,122.6L494.8,116.4L495.7,114.5L500.1,119.1L502.2,124.4L505.9,131.8L513.8,142.5L512.4,145.4L511.8,146.2L511.7,146.5L511.6,147.5L511.7,149.7L511.6,150.9L511,151.9L509.9,152.7L509.3,154.1L509.8,155L512.2,156.7L513.1,159.1L513.3,162.6L512.9,165.3L510.2,170.2L509,171.4L505.3,171.9L504.3,172.6L503.5,174.1L503,176.6L503.1,180L504.3,182L511.4,188.6L513.9,190L516,194.8L516.7,197.8L516.3,199.4L516.5,202L517.6,203.8L518.4,206.1L518.3,209.1L514.3,212.9L513.4,214.1L513.2,217.5L512.6,219.1L511.4,221L511.2,223.3L510.6,224.8L509.2,226.2L508.7,227.2L508.7,229L509.3,230.4L509.8,230.9L511.2,231.4L512.4,232.5L514.3,235.5L517.5,236.2L519.4,238L522.5,241L524.5,243.5L524.7,245.1L524.3,246.5L522.1,249.5L521.7,250.4L521.7,252.7L521.6,254.2L520.4,257L519.9,259.9L521.2,261.5L523.7,263.1L525.6,266.5L526.1,270.5L527.6,273L534.3,274.4L535.7,275.9L537.2,284.7L539.7,290.4L550,298.9L552.6,302.3L554,308.9L555.2,326.4L555,336L552.6,352.5L549,368.3Z M863,149.2L856.4,157.8L820.8,166.6L812.6,174.1L804.2,179.9L802.4,182.5L796.8,186.1L794.9,189L794.5,191L793.6,192.5L775.6,197.8L775,200.5L774.9,205L775.6,207.5L776,210.1L776.2,217.3L776.8,220.4L776.9,223.7L774.6,231.9L774.4,235.8L773.3,236.8L746.6,231.8L745.4,234.1L744.9,238.9L743.9,243.5L741.5,249.8L739.6,252.1L736.5,255.9L735,258L734.3,261.3L734.4,263.2L735.2,264.9L741.9,269.8L745.7,276L746.6,279.7L746.1,282.6L744.4,287.4L739.2,291.7L735.9,297.7L733.1,302.3L732,306.7L732.1,309.1L732.2,309.9L731.9,312.8L732.1,317L732.1,321.2L730.8,328.7L730.4,331.5L730.8,332.8L732.3,335.1L729.6,340L727.4,342.2L720.9,344.6L713.1,354.7L711.6,355.9L706.8,356.3L700.6,359.1L698,359.9L697.2,363.9L697,366.3L697.5,368.5L697.3,370.3L695.5,373.3L693.1,378.8L693.2,381.2L695.5,388.1L696.2,391.3L696.7,394.5L696.5,397.9L694.3,408.1L676.7,447L588.4,394.2L556.7,375.5L552.6,352.5L555,336L555.2,326.4L554,308.9L552.6,302.3L550,298.9L539.7,290.4L537.2,284.7L535.7,275.9L534.3,274.4L527.6,273L526.1,270.5L525.6,266.5L523.7,263.1L521.2,261.5L519.9,259.9L520.4,257L521.6,254.2L521.7,252.7L521.7,250.4L522.1,249.5L524.3,246.5L524.7,245.1L524.5,243.5L522.5,241L519.4,238L517.5,236.2L514.3,235.5L512.4,232.5L511.2,231.4L509.8,230.9L509.3,230.4L508.7,229L508.7,227.2L509.2,226.2L510.6,224.8L511.2,223.3L511.4,221L512.6,219.1L513.2,217.5L513.4,214.1L514.3,212.9L518.3,209.1L518.4,206.1L517.6,203.8L516.5,202L516.3,199.4L516.7,197.8L516,194.8L513.9,190L511.4,188.6L504.3,182L503.1,180L503,176.6L503.5,174.1L504.3,172.6L505.3,171.9L509,171.4L510.2,170.2L512.9,165.3L513.3,162.6L513.1,159.1L512.2,156.7L509.8,155L509.3,154.1L509.9,152.7L511,151.9L511.6,150.9L511.7,149.7L511.6,147.5L511.7,146.5L511.8,146.2L512.4,145.4L513.8,142.5L505.9,131.8L502.2,124.4L500.1,119.1L495.7,114.5L495.3,114.2L499,110.4L508.9,108.9L509.9,114.8L512.9,108.7L512.3,105.9L516,105.1L519.5,110.2L517.9,117.6L524.7,111.3L529.1,114.3L532.3,118.3L532.1,122.9L530.8,128.2L533.1,127.1L534.9,125.2L537.1,127.4L539.3,129.6L540.7,137.3L540.1,146.5L539.7,151.6L549.4,155.6L556.3,157.2L558.6,162L561.1,165.6L562.3,170.6L562.7,172.2L564.9,172.2L566.2,173.1L567.2,177.3L567.4,185.2L569.3,190.3L569.6,200L572.7,204.1L576.1,210.9L577.5,217.3L579.9,215.3L579.2,208L577.7,204.9L575.5,202.8L575.4,199.2L576.1,197.1L575.8,193.9L576.1,190.3L577.9,188.2L578.8,183.8L576.1,171.1L576.1,167.6L575.4,166.9L574.3,167L572.1,162.7L571.9,162L571.2,161.4L570.1,163.8L568.7,163.4L565.3,158.7L565.8,153.1L562.4,149.5L559.7,143.4L560.3,142L558,134.8L557.5,115.8L560.8,109.4L569.3,110.6L572.4,112.7L577.2,112.7L577,113.7L576.6,114.2L587.8,113.9L592,117L593.6,122.6L597.8,122.6L601.9,127.2L604.5,129.1L608.8,136.4L611.1,145L615.1,149L620,161.6L621.6,160.3L619.8,154.6L620.5,151.7L624.3,150.2L618.2,149.3L629.3,147.4L630.8,150.7L632.5,154.4L633,151.5L632,148.9L633,146.7L634.5,143.1L635.5,139L636.5,136.4L636.3,132.1L637.5,126.7L642,122L645,120.1L645.5,115.3L644.3,113.6L646.4,109.3L653.6,105L656.7,103.5L667.1,105.8L668.8,109.5L671.9,119.4L671.9,120.2L670.9,121.2L671.8,123.4L673.9,123.7L674.3,122.4L676,118.9L689.5,117L686.8,117.4L684.4,119.8L686.9,123.4L689.2,119.1L691.2,117L695.2,122.9L699.7,126.6L697.1,123.4L694.9,120.5L694.2,115.8L692.3,112.7L701.7,108.1L707,105.9L697.4,112.7L706.4,109.9L711.6,116.7L713.8,115.5L709.4,110.2L709.1,104.8L711.2,100.1L712.7,97.8L712.8,96.6L714.1,93L714.1,87.9L712.8,84.8L711.1,81L710.1,80.5L709.5,78L709.3,75L706.4,71.5L706.7,67.8L706.2,67.2L707,64.9L706,63.4L707,60.8L705.6,57.4L701.7,48.1L704.1,42.7L706.4,43.6L706.6,46.5L707.8,45.8L708.7,41.9L712.1,40L713.5,41.7L713.4,45.9L714.9,48L714.7,46L714.3,43.9L718.1,41.3L720,42L721.9,44.9L722.2,46.5L723.1,48L726.2,46.9L726.7,45.2L728.5,41.8L729.6,41L731.1,43.7L732.7,38.6L735.2,36.7L742.2,38.8L747,36.6L757.8,45.2L755.4,47.9L753.8,52.4L755,52.4L753.3,55.2L754.5,57.4L754,59.9L758.1,59.4L762.8,59.4L762.5,62.6L770.2,63.6L773,65.6L773.6,69.4L775.3,76.3L769.9,85.4L768.5,90.4L770.5,89.9L774.4,92.3L774.3,96L774.9,99.9L783.8,98.8L785.2,100L786.4,101.4L787.7,100.2L788.4,104.2L791.5,106.5L796.7,111.4L799.9,116L801.2,113.9L800.7,112.7L803.2,109.4L804.1,102.2L803.4,95.2L806.3,91.8L822.3,89.7L822.8,86.3L829.1,80.8L830.6,75.2L835.2,69.4L844.4,66.4L849.5,69.7L867.2,68L848.7,79.1L834.6,86L830,91.8L833,93.6L833.9,95.6L836,100.2L836.2,103.7L834.5,108.7L825.2,117L818,119.3L819,125.8L825.1,126.7L826.6,132.1L824.3,134.3L825,136.4L839.6,139.2L850.1,132.7L856.2,133.1L859,138.1L859.9,145L862.3,146.1L863,149.2Z M583.4,30.9L586.1,34.2L584.1,37.3L582.5,31.5L583.4,30.9Z M552.8,144L554.7,147.8L553.7,150.9L552,149.8L551.3,147L550,141.6L552.1,142.7L552.8,144Z"
    stroke="#4A90D9"
    stroke-width="4"
    stroke-linejoin="round"
    stroke-linecap="round"
    fill="rgba(45,108,192,0.12)"/>
  <circle cx="244" cy="493" r="40" fill="#E8803A"/>
  <circle cx="244" cy="493" r="78" stroke="#E8803A" stroke-width="16" opacity="0.4"/>
</svg>