<svg width="100" height="100" viewBox="0 0 100 100" xmlns="http://www.w3.org/2000/svg">
  <defs>
    <pattern id="hatch" width="4" height="4" patternUnits="userSpaceOnUse" patternTransform="rotate(45)">
      <line x1="0" y1="0" x2="0" y2="4" stroke="#253048" stroke-width="0.9"/>
    </pattern>
  </defs>
  <g transform="translate(50,50)">
    <circle cx="0" cy="0" r="44" fill="url(#hatch)" stroke="#2D6CC0" stroke-width="2.5"/>
    <circle cx="0" cy="0" r="44" fill="none" stroke="#4A90D9" stroke-width="0.5" opacity="0.3"/>
    <circle cx="0" cy="0" r="29" fill="none" stroke="#1A4B8C" stroke-width="1.5"/>
    <circle cx="0" cy="0" r="14" fill="none" stroke="#4A90D9" stroke-width="2"/>
    <line x1="0" y1="-44" x2="0" y2="-29" stroke="#4A90D9" stroke-width="1.5"/>
    <line x1="0" y1="29"  x2="0" y2="44"  stroke="#4A90D9" stroke-width="1.5"/>
    <line x1="29"  y1="0" x2="44"  y2="0" stroke="#4A90D9" stroke-width="1.5"/>
    <line x1="-44" y1="0" x2="-29" y2="0" stroke="#4A90D9" stroke-width="1.5"/>
    <polygon points="0,-44 5,-33 0,-29 -5,-33" fill="#E8803A"/>
    <polygon points="0,44 5,33 0,29 -5,33"     fill="#E8803A"/>
    <polygon points="-44,0 -33,-5 -29,0 -33,5" fill="#E8803A"/>
    <polygon points="44,0 33,-5 29,0 33,5"      fill="#E8803A"/>
    <circle cx="0" cy="0" r="5" fill="#E8803A"/>
    <circle cx="0" cy="0" r="2" fill="transparent"/>
  </g>
</svg>
